# xmcd
# Copyright (C) 1995-1998 Ti Kan
#
# Track frame offsets:
#       150
#       21225
#       42530
#       60697
#
# Disc length: 1132 seconds
#
# Revision: 0
# Processed by: cddbd v1.4PL0 Copyright (c) Steve Scherf et al.
# Submitted via: CD-Transfer v1.0
#
DISCID=32046a04
DTITLE=Joe Schwach - Handmade
DYEAR=1997
DGENRE=
TTITLE0=Right On Time
TTITLE1=Child Of The Moon
TTITLE2=We Had It All
TTITLE3=My Imagination
EXTD=
EXTT0=
EXTT1=
EXTT2=
EXTT3=
PLAYORDER=
